<svg xmlns="http://www.w3.org/2000/svg" viewBox="0 0 30 20.58"><defs><style>.cls-1{fill:#fcdd4b;}</style></defs><title>contact_xxs</title><g id="Layer_2" data-name="Layer 2"><g id="Layer_1-2" data-name="Layer 1"><rect class="cls-1" x="1.87" y="1.87" width="26.26" height="16.84"/><polygon points="28.13 1.87 28.13 3.74 26.23 3.74 26.23 5.61 28.13 5.61 28.13 7.49 28.13 9.36 28.13 11.23 28.13 13.1 28.13 14.97 28.13 16.84 26.23 16.84 26.23 18.71 24.36 18.71 22.48 18.71 20.61 18.71 18.74 18.71 16.87 18.71 15 18.71 13.13 18.71 11.26 18.71 9.39 18.71 7.51 18.71 5.64 18.71 3.74 18.71 3.74 16.84 1.87 16.84 1.87 14.97 1.87 13.1 1.87 11.23 1.87 9.36 1.87 7.49 1.87 5.61 3.74 5.61 3.74 3.74 1.87 3.74 1.87 1.87 0 1.87 0 3.74 0 5.61 0 7.49 0 9.36 0 11.23 0 13.1 0 14.97 0 16.84 0 18.71 1.87 18.71 1.87 20.58 3.74 20.58 5.64 20.58 7.51 20.58 9.39 20.58 11.26 20.58 13.13 20.58 15 20.58 16.87 20.58 18.74 20.58 20.61 20.58 22.48 20.58 24.36 20.58 26.23 20.58 28.13 20.58 28.13 18.71 30 18.71 30 16.84 30 14.97 30 13.1 30 11.23 30 9.36 30 7.49 30 5.61 30 3.74 30 1.87 28.13 1.87"/><rect x="20.61" y="11.23" width="1.87" height="1.87"/><rect x="7.52" y="11.23" width="1.87" height="1.87"/><polygon points="15 13.1 16.87 13.1 16.87 11.23 15 11.23 13.13 11.23 13.13 13.1 15 13.1"/><polygon points="11.26 11.23 13.13 11.23 13.13 9.36 11.26 9.36 9.39 9.36 9.39 11.23 11.26 11.23"/><polygon points="20.61 11.23 20.61 9.36 18.74 9.36 16.87 9.36 16.87 11.23 18.74 11.23 20.61 11.23"/><polygon points="7.51 9.36 9.39 9.36 9.39 7.49 7.51 7.49 5.64 7.49 5.64 9.36 7.51 9.36"/><polygon points="24.36 9.36 24.36 7.49 22.48 7.49 20.61 7.49 20.61 9.36 22.48 9.36 24.36 9.36"/><rect x="5.64" y="13.1" width="1.87" height="1.87"/><rect x="22.48" y="13.1" width="1.87" height="1.87"/><rect x="3.74" y="14.97" width="1.87" height="1.87"/><rect x="24.36" y="14.97" width="1.87" height="1.87"/><rect x="3.74" y="5.61" width="1.87" height="1.87"/><rect x="24.36" y="5.61" width="1.87" height="1.87"/><polygon points="5.64 1.87 7.51 1.87 9.39 1.87 11.26 1.87 13.13 1.87 15 1.87 16.87 1.87 18.74 1.87 20.61 1.87 22.48 1.87 24.36 1.87 26.23 1.87 28.13 1.87 28.13 0 26.23 0 24.36 0 22.48 0 20.61 0 18.74 0 16.87 0 15 0 13.13 0 11.26 0 9.39 0 7.51 0 5.64 0 3.74 0 1.87 0 1.87 1.87 3.74 1.87 5.64 1.87"/></g></g></svg>