<svg xmlns="http://www.w3.org/2000/svg" viewBox="0 0 30 30.06"><defs><style>.cls-1{fill:#d80027;}.cls-2{fill:#f0f0f0;}.cls-3{fill:#0052b4;}.cls-4{fill:#3b78c2;}.cls-5{fill:#e7eaed;}.cls-6{fill:#99b6da;}.cls-7{fill:#3d7ac3;}.cls-8{fill:#df4b65;}.cls-9{fill:#a5bedd;}.cls-10{fill:#becfe3;}.cls-11{fill:#85aad5;}.cls-12{fill:#4f86c7;}.cls-13{fill:#ecedef;}.cls-14{fill:#125db8;}.cls-15{fill:#6b98ce;}.cls-16{fill:#1a63ba;}.cls-17{fill:#4e85c7;}.cls-18{fill:#1761b9;}.cls-19{fill:#d0dbe7;}.cls-20{fill:#145aaf;}.cls-21{fill:#4d80bd;}.cls-22{fill:#145fb9;}</style></defs><title>us_lang_xxs</title><g id="Layer_2" data-name="Layer 2"><g id="Layer_1-2" data-name="Layer 1"><rect class="cls-1" x="18" y="28.56" width="1.5" height="1.5"/><rect class="cls-1" x="16.5" y="28.56" width="1.5" height="1.5"/><rect class="cls-1" x="15" y="28.56" width="1.5" height="1.5"/><rect class="cls-1" x="13.5" y="28.56" width="1.5" height="1.5"/><rect class="cls-1" x="12" y="28.56" width="1.5" height="1.5"/><rect class="cls-1" x="10.5" y="28.56" width="1.5" height="1.5"/><rect class="cls-1" x="21" y="27.05" width="1.5" height="1.5"/><rect class="cls-1" x="19.5" y="27.05" width="1.5" height="1.5"/><rect class="cls-1" x="18" y="27.05" width="1.5" height="1.5"/><rect class="cls-1" x="16.5" y="27.05" width="1.5" height="1.5"/><rect class="cls-1" x="15" y="27.05" width="1.5" height="1.5"/><rect class="cls-1" x="13.5" y="27.05" width="1.5" height="1.5"/><rect class="cls-1" x="12" y="27.05" width="1.5" height="1.5"/><rect class="cls-1" x="10.5" y="27.05" width="1.5" height="1.5"/><rect class="cls-1" x="9" y="27.05" width="1.5" height="1.5"/><rect class="cls-1" x="7.5" y="27.05" width="1.5" height="1.5"/><rect class="cls-2" x="24" y="25.55" width="1.5" height="1.5"/><rect class="cls-2" x="22.5" y="25.55" width="1.5" height="1.5"/><rect class="cls-2" x="21" y="25.55" width="1.5" height="1.5"/><rect class="cls-2" x="19.5" y="25.55" width="1.5" height="1.5"/><rect class="cls-2" x="18" y="25.55" width="1.5" height="1.5"/><rect class="cls-2" x="16.5" y="25.55" width="1.5" height="1.5"/><rect class="cls-2" x="15" y="25.55" width="1.5" height="1.5"/><rect class="cls-2" x="13.5" y="25.55" width="1.5" height="1.5"/><rect class="cls-2" x="12" y="25.55" width="1.5" height="1.5"/><rect class="cls-2" x="10.5" y="25.55" width="1.5" height="1.5"/><rect class="cls-2" x="9" y="25.55" width="1.5" height="1.5"/><rect class="cls-2" x="7.5" y="25.55" width="1.5" height="1.5"/><rect class="cls-2" x="6" y="25.55" width="1.5" height="1.5"/><rect class="cls-2" x="4.5" y="25.55" width="1.5" height="1.5"/><rect class="cls-2" x="25.5" y="24.05" width="1.5" height="1.5"/><rect class="cls-2" x="24" y="24.05" width="1.5" height="1.5"/><rect class="cls-2" x="22.5" y="24.05" width="1.5" height="1.5"/><rect class="cls-2" x="21" y="24.05" width="1.5" height="1.5"/><rect class="cls-2" x="19.5" y="24.05" width="1.5" height="1.5"/><rect class="cls-2" x="18" y="24.05" width="1.5" height="1.5"/><rect class="cls-2" x="16.5" y="24.05" width="1.5" height="1.5"/><rect class="cls-2" x="15" y="24.05" width="1.5" height="1.5"/><rect class="cls-2" x="13.5" y="24.05" width="1.5" height="1.5"/><rect class="cls-2" x="12" y="24.05" width="1.5" height="1.5"/><rect class="cls-2" x="10.5" y="24.05" width="1.5" height="1.5"/><rect class="cls-2" x="9" y="24.05" width="1.5" height="1.5"/><rect class="cls-2" x="7.5" y="24.05" width="1.5" height="1.5"/><rect class="cls-2" x="6" y="24.05" width="1.5" height="1.5"/><rect class="cls-2" x="4.5" y="24.05" width="1.5" height="1.5"/><rect class="cls-2" x="3" y="24.05" width="1.5" height="1.5"/><rect class="cls-2" x="25.5" y="22.54" width="1.5" height="1.5"/><rect class="cls-2" x="24" y="22.54" width="1.5" height="1.5"/><rect class="cls-2" x="22.5" y="22.54" width="1.5" height="1.5"/><rect class="cls-2" x="21" y="22.54" width="1.5" height="1.5"/><rect class="cls-2" x="19.5" y="22.54" width="1.5" height="1.5"/><rect class="cls-2" x="18" y="22.54" width="1.5" height="1.5"/><rect class="cls-2" x="16.5" y="22.54" width="1.5" height="1.5"/><rect class="cls-2" x="15" y="22.54" width="1.5" height="1.5"/><rect class="cls-2" x="13.5" y="22.54" width="1.5" height="1.5"/><rect class="cls-2" x="12" y="22.54" width="1.5" height="1.5"/><rect class="cls-2" x="10.5" y="22.54" width="1.5" height="1.5"/><rect class="cls-2" x="9" y="22.54" width="1.5" height="1.5"/><rect class="cls-2" x="7.5" y="22.54" width="1.5" height="1.5"/><rect class="cls-2" x="6" y="22.54" width="1.5" height="1.5"/><rect class="cls-2" x="4.5" y="22.54" width="1.5" height="1.5"/><rect class="cls-2" x="3" y="22.54" width="1.5" height="1.5"/><rect class="cls-1" x="27" y="21.04" width="1.5" height="1.5"/><rect class="cls-1" x="25.5" y="21.04" width="1.5" height="1.5"/><rect class="cls-1" x="24" y="21.04" width="1.5" height="1.5"/><rect class="cls-1" x="22.5" y="21.04" width="1.5" height="1.5"/><rect class="cls-1" x="21" y="21.04" width="1.5" height="1.5"/><rect class="cls-1" x="19.5" y="21.04" width="1.5" height="1.5"/><rect class="cls-1" x="18" y="21.04" width="1.5" height="1.5"/><rect class="cls-1" x="16.5" y="21.04" width="1.5" height="1.5"/><rect class="cls-1" x="15" y="21.04" width="1.5" height="1.5"/><rect class="cls-1" x="13.5" y="21.04" width="1.5" height="1.5"/><rect class="cls-1" x="12" y="21.04" width="1.5" height="1.5"/><rect class="cls-1" x="10.5" y="21.04" width="1.5" height="1.5"/><rect class="cls-1" x="9" y="21.04" width="1.5" height="1.5"/><rect class="cls-1" x="7.5" y="21.04" width="1.5" height="1.5"/><rect class="cls-1" x="6" y="21.04" width="1.5" height="1.5"/><rect class="cls-1" x="4.5" y="21.04" width="1.5" height="1.5"/><rect class="cls-1" x="3" y="21.04" width="1.5" height="1.5"/><rect class="cls-1" x="1.5" y="21.04" width="1.5" height="1.5"/><rect class="cls-1" x="27" y="19.54" width="1.5" height="1.5"/><rect class="cls-1" x="25.5" y="19.54" width="1.5" height="1.5"/><rect class="cls-1" x="24" y="19.54" width="1.5" height="1.5"/><rect class="cls-1" x="22.5" y="19.54" width="1.5" height="1.5"/><rect class="cls-1" x="21" y="19.54" width="1.5" height="1.5"/><rect class="cls-1" x="19.5" y="19.54" width="1.5" height="1.5"/><rect class="cls-1" x="18" y="19.54" width="1.5" height="1.5"/><rect class="cls-1" x="16.5" y="19.54" width="1.5" height="1.5"/><rect class="cls-1" x="15" y="19.54" width="1.5" height="1.5"/><rect class="cls-1" x="13.5" y="19.54" width="1.5" height="1.5"/><rect class="cls-1" x="12" y="19.54" width="1.5" height="1.5"/><rect class="cls-1" x="10.5" y="19.54" width="1.5" height="1.5"/><rect class="cls-1" x="9" y="19.54" width="1.5" height="1.5"/><rect class="cls-1" x="7.5" y="19.54" width="1.5" height="1.5"/><rect class="cls-1" x="6" y="19.54" width="1.5" height="1.5"/><rect class="cls-1" x="4.5" y="19.54" width="1.5" height="1.5"/><rect class="cls-1" x="3" y="19.54" width="1.5" height="1.5"/><rect class="cls-1" x="1.5" y="19.54" width="1.5" height="1.5"/><rect class="cls-2" x="28.5" y="18.04" width="1.5" height="1.5"/><rect class="cls-2" x="27" y="18.04" width="1.5" height="1.5"/><rect class="cls-2" x="25.5" y="18.04" width="1.5" height="1.5"/><rect class="cls-2" x="24" y="18.04" width="1.5" height="1.5"/><rect class="cls-2" x="22.5" y="18.04" width="1.5" height="1.5"/><rect class="cls-2" x="21" y="18.04" width="1.5" height="1.5"/><rect class="cls-2" x="19.5" y="18.04" width="1.5" height="1.5"/><rect class="cls-2" x="18" y="18.04" width="1.5" height="1.5"/><rect class="cls-2" x="16.5" y="18.04" width="1.5" height="1.5"/><rect class="cls-2" x="15" y="18.04" width="1.5" height="1.5"/><rect class="cls-2" x="13.5" y="18.04" width="1.5" height="1.5"/><rect class="cls-2" x="12" y="18.04" width="1.5" height="1.5"/><rect class="cls-2" x="10.5" y="18.04" width="1.5" height="1.5"/><rect class="cls-2" x="9" y="18.04" width="1.5" height="1.5"/><rect class="cls-2" x="7.5" y="18.04" width="1.5" height="1.5"/><rect class="cls-2" x="6" y="18.04" width="1.5" height="1.5"/><rect class="cls-2" x="4.5" y="18.04" width="1.5" height="1.5"/><rect class="cls-2" x="3" y="18.04" width="1.5" height="1.5"/><rect class="cls-2" x="1.5" y="18.04" width="1.5" height="1.5"/><rect class="cls-2" y="18.04" width="1.5" height="1.5"/><rect class="cls-2" x="28.5" y="16.53" width="1.5" height="1.5"/><rect class="cls-2" x="27" y="16.53" width="1.5" height="1.5"/><rect class="cls-2" x="25.5" y="16.53" width="1.5" height="1.5"/><rect class="cls-2" x="24" y="16.53" width="1.5" height="1.5"/><rect class="cls-2" x="22.5" y="16.53" width="1.5" height="1.5"/><rect class="cls-2" x="21" y="16.53" width="1.5" height="1.5"/><rect class="cls-2" x="19.5" y="16.53" width="1.5" height="1.5"/><rect class="cls-2" x="18" y="16.53" width="1.5" height="1.5"/><rect class="cls-2" x="16.5" y="16.53" width="1.5" height="1.5"/><rect class="cls-2" x="15" y="16.53" width="1.5" height="1.5"/><rect class="cls-2" x="13.5" y="16.53" width="1.5" height="1.5"/><rect class="cls-2" x="12" y="16.53" width="1.5" height="1.5"/><rect class="cls-2" x="10.5" y="16.53" width="1.5" height="1.5"/><rect class="cls-2" x="9" y="16.53" width="1.5" height="1.5"/><rect class="cls-2" x="7.5" y="16.53" width="1.5" height="1.5"/><rect class="cls-2" x="6" y="16.53" width="1.5" height="1.5"/><rect class="cls-2" x="4.5" y="16.53" width="1.5" height="1.5"/><rect class="cls-2" x="3" y="16.53" width="1.5" height="1.5"/><rect class="cls-2" x="1.5" y="16.53" width="1.5" height="1.5"/><rect class="cls-2" y="16.53" width="1.5" height="1.5"/><rect class="cls-2" x="28.5" y="15.03" width="1.5" height="1.5"/><rect class="cls-2" x="27" y="15.03" width="1.5" height="1.5"/><rect class="cls-2" x="25.5" y="15.03" width="1.5" height="1.5"/><rect class="cls-2" x="24" y="15.03" width="1.5" height="1.5"/><rect class="cls-2" x="22.5" y="15.03" width="1.5" height="1.5"/><rect class="cls-2" x="21" y="15.03" width="1.5" height="1.5"/><rect class="cls-2" x="19.5" y="15.03" width="1.5" height="1.5"/><rect class="cls-2" x="18" y="15.03" width="1.5" height="1.5"/><rect class="cls-2" x="16.5" y="15.03" width="1.5" height="1.5"/><rect class="cls-2" x="15" y="15.03" width="1.5" height="1.5"/><rect class="cls-2" x="13.5" y="15.03" width="1.5" height="1.5"/><rect class="cls-2" x="12" y="15.03" width="1.5" height="1.5"/><rect class="cls-2" x="10.5" y="15.03" width="1.5" height="1.5"/><rect class="cls-2" x="9" y="15.03" width="1.5" height="1.5"/><rect class="cls-2" x="7.5" y="15.03" width="1.5" height="1.5"/><rect class="cls-2" x="6" y="15.03" width="1.5" height="1.5"/><rect class="cls-2" x="4.5" y="15.03" width="1.5" height="1.5"/><rect class="cls-2" x="3" y="15.03" width="1.5" height="1.5"/><rect class="cls-2" x="1.5" y="15.03" width="1.5" height="1.5"/><rect class="cls-2" y="15.03" width="1.5" height="1.5"/><rect class="cls-1" x="28.5" y="13.53" width="1.5" height="1.5"/><rect class="cls-1" x="27" y="13.53" width="1.5" height="1.5"/><rect class="cls-1" x="25.5" y="13.53" width="1.5" height="1.5"/><rect class="cls-1" x="24" y="13.53" width="1.5" height="1.5"/><rect class="cls-1" x="22.5" y="13.53" width="1.5" height="1.5"/><rect class="cls-1" x="21" y="13.53" width="1.5" height="1.5"/><rect class="cls-1" x="19.5" y="13.53" width="1.5" height="1.5"/><rect class="cls-1" x="18" y="13.53" width="1.5" height="1.5"/><rect class="cls-1" x="16.5" y="13.53" width="1.5" height="1.5"/><rect class="cls-1" x="15" y="13.53" width="1.5" height="1.5"/><rect class="cls-3" x="13.5" y="13.53" width="1.5" height="1.5"/><rect class="cls-3" x="12" y="13.53" width="1.5" height="1.5"/><rect class="cls-3" x="10.5" y="13.53" width="1.5" height="1.5"/><rect class="cls-3" x="9" y="13.53" width="1.5" height="1.5"/><rect class="cls-3" x="7.5" y="13.53" width="1.5" height="1.5"/><rect class="cls-3" x="6" y="13.53" width="1.5" height="1.5"/><rect class="cls-3" x="4.5" y="13.53" width="1.5" height="1.5"/><rect class="cls-3" x="3" y="13.53" width="1.5" height="1.5"/><rect class="cls-3" x="1.5" y="13.53" width="1.5" height="1.5"/><rect class="cls-3" y="13.53" width="1.5" height="1.5"/><rect class="cls-1" x="28.5" y="12.02" width="1.5" height="1.5"/><rect class="cls-1" x="27" y="12.02" width="1.5" height="1.5"/><rect class="cls-1" x="25.5" y="12.02" width="1.5" height="1.5"/><rect class="cls-1" x="24" y="12.02" width="1.5" height="1.5"/><rect class="cls-1" x="22.5" y="12.02" width="1.5" height="1.5"/><rect class="cls-1" x="21" y="12.02" width="1.5" height="1.5"/><rect class="cls-1" x="19.5" y="12.02" width="1.5" height="1.5"/><rect class="cls-1" x="18" y="12.02" width="1.5" height="1.5"/><rect class="cls-1" x="16.5" y="12.02" width="1.5" height="1.5"/><rect class="cls-1" x="15" y="12.02" width="1.5" height="1.5"/><rect class="cls-3" x="13.5" y="12.02" width="1.5" height="1.5"/><rect class="cls-4" x="12" y="12.02" width="1.5" height="1.5"/><rect class="cls-2" x="10.5" y="12.02" width="1.5" height="1.5"/><rect class="cls-3" x="9" y="12.02" width="1.5" height="1.5"/><rect class="cls-3" x="7.5" y="12.02" width="1.5" height="1.5"/><rect class="cls-5" x="6" y="12.02" width="1.5" height="1.5"/><rect class="cls-6" x="4.5" y="12.02" width="1.5" height="1.5"/><rect class="cls-3" x="3" y="12.02" width="1.5" height="1.5"/><rect class="cls-3" x="1.5" y="12.02" width="1.5" height="1.5"/><rect class="cls-7" y="12.02" width="1.5" height="1.5"/><rect class="cls-8" x="28.5" y="10.52" width="1.5" height="1.5"/><rect class="cls-8" x="27" y="10.52" width="1.5" height="1.5"/><rect class="cls-8" x="25.5" y="10.52" width="1.5" height="1.5"/><rect class="cls-8" x="24" y="10.52" width="1.5" height="1.5"/><rect class="cls-8" x="22.5" y="10.52" width="1.5" height="1.5"/><rect class="cls-8" x="21" y="10.52" width="1.5" height="1.5"/><rect class="cls-8" x="19.5" y="10.52" width="1.5" height="1.5"/><rect class="cls-8" x="18" y="10.52" width="1.5" height="1.5"/><rect class="cls-8" x="16.5" y="10.52" width="1.5" height="1.5"/><rect class="cls-8" x="15" y="10.52" width="1.5" height="1.5"/><rect class="cls-3" x="13.5" y="10.52" width="1.5" height="1.5"/><rect class="cls-9" x="12" y="10.52" width="1.5" height="1.5"/><rect class="cls-10" x="10.5" y="10.52" width="1.5" height="1.5"/><rect class="cls-11" x="9" y="10.52" width="1.5" height="1.5"/><rect class="cls-12" x="7.5" y="10.52" width="1.5" height="1.5"/><rect class="cls-13" x="6" y="10.52" width="1.5" height="1.5"/><rect class="cls-9" x="4.5" y="10.52" width="1.5" height="1.5"/><rect class="cls-3" x="3" y="10.52" width="1.5" height="1.5"/><rect class="cls-9" x="1.5" y="10.52" width="1.5" height="1.5"/><rect class="cls-2" y="10.52" width="1.5" height="1.5"/><rect class="cls-2" x="27" y="9.02" width="1.5" height="1.5"/><rect class="cls-2" x="25.5" y="9.02" width="1.5" height="1.5"/><rect class="cls-2" x="24" y="9.02" width="1.5" height="1.5"/><rect class="cls-2" x="22.5" y="9.02" width="1.5" height="1.5"/><rect class="cls-2" x="21" y="9.02" width="1.5" height="1.5"/><rect class="cls-2" x="19.5" y="9.02" width="1.5" height="1.5"/><rect class="cls-2" x="18" y="9.02" width="1.5" height="1.5"/><rect class="cls-2" x="16.5" y="9.02" width="1.5" height="1.5"/><rect class="cls-2" x="15" y="9.02" width="1.5" height="1.5"/><rect class="cls-3" x="13.5" y="9.02" width="1.5" height="1.5"/><rect class="cls-3" x="12" y="9.02" width="1.5" height="1.5"/><rect class="cls-3" x="10.5" y="9.02" width="1.5" height="1.5"/><rect class="cls-3" x="9" y="9.02" width="1.5" height="1.5"/><rect class="cls-3" x="7.5" y="9.02" width="1.5" height="1.5"/><rect class="cls-3" x="6" y="9.02" width="1.5" height="1.5"/><rect class="cls-3" x="4.5" y="9.02" width="1.5" height="1.5"/><rect class="cls-3" x="3" y="9.02" width="1.5" height="1.5"/><rect class="cls-3" x="1.5" y="9.02" width="1.5" height="1.5"/><rect class="cls-2" x="27" y="7.51" width="1.5" height="1.5"/><rect class="cls-2" x="25.5" y="7.51" width="1.5" height="1.5"/><rect class="cls-2" x="24" y="7.51" width="1.5" height="1.5"/><rect class="cls-2" x="22.5" y="7.51" width="1.5" height="1.5"/><rect class="cls-2" x="21" y="7.51" width="1.5" height="1.5"/><rect class="cls-2" x="19.5" y="7.51" width="1.5" height="1.5"/><rect class="cls-2" x="18" y="7.51" width="1.5" height="1.5"/><rect class="cls-2" x="16.5" y="7.51" width="1.5" height="1.5"/><rect class="cls-2" x="15" y="7.51" width="1.5" height="1.5"/><rect class="cls-3" x="13.5" y="7.51" width="1.5" height="1.5"/><rect class="cls-14" x="12" y="7.51" width="1.5" height="1.5"/><rect class="cls-2" x="10.5" y="7.51" width="1.5" height="1.5"/><rect class="cls-3" x="9" y="7.51" width="1.5" height="1.5"/><rect class="cls-3" x="7.5" y="7.51" width="1.5" height="1.5"/><rect class="cls-2" x="6" y="7.51" width="1.5" height="1.5"/><rect class="cls-15" x="4.5" y="7.51" width="1.5" height="1.5"/><rect class="cls-3" x="3" y="7.51" width="1.5" height="1.5"/><rect class="cls-3" x="1.5" y="7.51" width="1.5" height="1.5"/><rect class="cls-1" x="25.5" y="6.01" width="1.5" height="1.5"/><rect class="cls-1" x="24" y="6.01" width="1.5" height="1.5"/><rect class="cls-1" x="22.5" y="6.01" width="1.5" height="1.5"/><rect class="cls-1" x="21" y="6.01" width="1.5" height="1.5"/><rect class="cls-1" x="19.5" y="6.01" width="1.5" height="1.5"/><rect class="cls-1" x="18" y="6.01" width="1.5" height="1.5"/><rect class="cls-1" x="16.5" y="6.01" width="1.5" height="1.5"/><rect class="cls-1" x="15" y="6.01" width="1.5" height="1.5"/><rect class="cls-3" x="13.5" y="6.01" width="1.5" height="1.5"/><rect class="cls-16" x="12" y="6.01" width="1.5" height="1.5"/><rect class="cls-17" x="10.5" y="6.01" width="1.5" height="1.5"/><rect class="cls-16" x="9" y="6.01" width="1.5" height="1.5"/><rect class="cls-18" x="7.5" y="6.01" width="1.5" height="1.5"/><rect class="cls-19" x="6" y="6.01" width="1.5" height="1.5"/><rect class="cls-16" x="4.5" y="6.01" width="1.5" height="1.5"/><rect class="cls-3" x="3" y="6.01" width="1.5" height="1.5"/><rect class="cls-1" x="25.5" y="4.51" width="1.5" height="1.5"/><rect class="cls-1" x="24" y="4.51" width="1.5" height="1.5"/><rect class="cls-1" x="22.5" y="4.51" width="1.5" height="1.5"/><rect class="cls-1" x="21" y="4.51" width="1.5" height="1.5"/><rect class="cls-1" x="19.5" y="4.51" width="1.5" height="1.5"/><rect class="cls-1" x="18" y="4.51" width="1.5" height="1.5"/><rect class="cls-1" x="16.5" y="4.51" width="1.5" height="1.5"/><rect class="cls-1" x="15" y="4.51" width="1.5" height="1.5"/><rect class="cls-3" x="13.5" y="4.51" width="1.5" height="1.5"/><rect class="cls-3" x="12" y="4.51" width="1.5" height="1.5"/><rect class="cls-3" x="10.5" y="4.51" width="1.5" height="1.5"/><rect class="cls-3" x="9" y="4.51" width="1.5" height="1.5"/><rect class="cls-3" x="7.5" y="4.51" width="1.5" height="1.5"/><rect class="cls-3" x="6" y="4.51" width="1.5" height="1.5"/><rect class="cls-3" x="4.5" y="4.51" width="1.5" height="1.5"/><rect class="cls-20" x="3" y="4.51" width="1.5" height="1.5"/><rect class="cls-1" x="24" y="3.01" width="1.5" height="1.5"/><rect class="cls-1" x="22.5" y="3.01" width="1.5" height="1.5"/><rect class="cls-1" x="21" y="3.01" width="1.5" height="1.5"/><rect class="cls-1" x="19.5" y="3.01" width="1.5" height="1.5"/><rect class="cls-1" x="18" y="3.01" width="1.5" height="1.5"/><rect class="cls-1" x="16.5" y="3.01" width="1.5" height="1.5"/><rect class="cls-1" x="15" y="3.01" width="1.5" height="1.5"/><rect class="cls-3" x="13.5" y="3.01" width="1.5" height="1.5"/><rect class="cls-3" x="12" y="3.01" width="1.5" height="1.5"/><rect class="cls-2" x="10.5" y="3.01" width="1.5" height="1.5"/><rect class="cls-3" x="9" y="3.01" width="1.5" height="1.5"/><rect class="cls-3" x="7.5" y="3.01" width="1.5" height="1.5"/><rect class="cls-2" x="6" y="3.01" width="1.5" height="1.5"/><rect class="cls-21" x="4.5" y="3.01" width="1.5" height="1.5"/><rect class="cls-2" x="21" y="1.5" width="1.5" height="1.5"/><rect class="cls-2" x="19.5" y="1.5" width="1.5" height="1.5"/><rect class="cls-2" x="18" y="1.5" width="1.5" height="1.5"/><rect class="cls-2" x="16.5" y="1.5" width="1.5" height="1.5"/><rect class="cls-2" x="15" y="1.5" width="1.5" height="1.5"/><rect class="cls-3" x="13.5" y="1.5" width="1.5" height="1.5"/><rect class="cls-3" x="12" y="1.5" width="1.5" height="1.5"/><rect class="cls-22" x="10.5" y="1.5" width="1.5" height="1.5"/><rect class="cls-3" x="9" y="1.5" width="1.5" height="1.5"/><rect class="cls-3" x="7.5" y="1.5" width="1.5" height="1.5"/><rect class="cls-2" x="18" width="1.5" height="1.5"/><rect class="cls-2" x="16.5" width="1.5" height="1.5"/><rect class="cls-2" x="15" width="1.5" height="1.5"/><rect class="cls-3" x="13.5" width="1.5" height="1.5"/><rect class="cls-3" x="12" width="1.5" height="1.5"/><rect class="cls-3" x="10.5" width="1.5" height="1.5"/></g></g></svg>