<svg xmlns="http://www.w3.org/2000/svg" viewBox="0 0 512 513"><defs><style>.cls-1{fill:#d80027;}.cls-2{fill:#ffda44;}.cls-3{fill:#fff;}</style></defs><title>es_flag</title><g id="Layer_2" data-name="Layer 2"><g id="Layer_1-2" data-name="Layer 1"><rect class="cls-1" x="307.2" y="478.8" width="34.13" height="34.2"/><rect class="cls-1" x="273.07" y="478.8" width="34.13" height="34.2"/><rect class="cls-1" x="238.93" y="478.8" width="34.13" height="34.2"/><rect class="cls-1" x="204.8" y="478.8" width="34.13" height="34.2"/><rect class="cls-1" x="170.67" y="478.8" width="34.13" height="34.2"/><rect class="cls-1" x="375.47" y="444.6" width="34.13" height="34.2"/><rect class="cls-1" x="341.33" y="444.6" width="34.13" height="34.2"/><rect class="cls-1" x="307.2" y="444.6" width="34.13" height="34.2"/><rect class="cls-1" x="273.07" y="444.6" width="34.13" height="34.2"/><rect class="cls-1" x="238.93" y="444.6" width="34.13" height="34.2"/><rect class="cls-1" x="204.8" y="444.6" width="34.13" height="34.2"/><rect class="cls-1" x="170.67" y="444.6" width="34.13" height="34.2"/><rect class="cls-1" x="136.53" y="444.6" width="34.13" height="34.2"/><rect class="cls-1" x="102.4" y="444.6" width="34.13" height="34.2"/><rect class="cls-1" x="409.6" y="410.4" width="34.13" height="34.2"/><rect class="cls-1" x="375.47" y="410.4" width="34.13" height="34.2"/><rect class="cls-1" x="341.33" y="410.4" width="34.13" height="34.2"/><rect class="cls-1" x="307.2" y="410.4" width="34.13" height="34.2"/><rect class="cls-1" x="273.07" y="410.4" width="34.13" height="34.2"/><rect class="cls-1" x="238.93" y="410.4" width="34.13" height="34.2"/><rect class="cls-1" x="204.8" y="410.4" width="34.13" height="34.2"/><rect class="cls-1" x="170.67" y="410.4" width="34.13" height="34.2"/><rect class="cls-1" x="136.53" y="410.4" width="34.13" height="34.2"/><rect class="cls-1" x="102.4" y="410.4" width="34.13" height="34.2"/><rect class="cls-1" x="68.27" y="410.4" width="34.13" height="34.2"/><rect class="cls-1" x="443.73" y="376.2" width="34.13" height="34.2"/><rect class="cls-1" x="409.6" y="376.2" width="34.13" height="34.2"/><rect class="cls-1" x="375.47" y="376.2" width="34.13" height="34.2"/><rect class="cls-1" x="341.33" y="376.2" width="34.13" height="34.2"/><rect class="cls-1" x="307.2" y="376.2" width="34.13" height="34.2"/><rect class="cls-1" x="273.07" y="376.2" width="34.13" height="34.2"/><rect class="cls-1" x="238.93" y="376.2" width="34.13" height="34.2"/><rect class="cls-1" x="204.8" y="376.2" width="34.13" height="34.2"/><rect class="cls-1" x="170.67" y="376.2" width="34.13" height="34.2"/><rect class="cls-1" x="136.53" y="376.2" width="34.13" height="34.2"/><rect class="cls-1" x="102.4" y="376.2" width="34.13" height="34.2"/><rect class="cls-1" x="68.27" y="376.2" width="34.13" height="34.2"/><rect class="cls-1" x="34.13" y="376.2" width="34.13" height="34.2"/><rect class="cls-1" x="443.73" y="342" width="34.13" height="34.2"/><rect class="cls-1" x="409.6" y="342" width="34.13" height="34.2"/><rect class="cls-1" x="375.47" y="342" width="34.13" height="34.2"/><rect class="cls-1" x="341.33" y="342" width="34.13" height="34.2"/><rect class="cls-1" x="307.2" y="342" width="34.13" height="34.2"/><rect class="cls-1" x="273.07" y="342" width="34.13" height="34.2"/><rect class="cls-1" x="238.93" y="342" width="34.13" height="34.2"/><rect class="cls-1" x="204.8" y="342" width="34.13" height="34.2"/><rect class="cls-1" x="170.67" y="342" width="34.13" height="34.2"/><rect class="cls-1" x="136.53" y="342" width="34.13" height="34.2"/><rect class="cls-1" x="102.4" y="342" width="34.13" height="34.2"/><rect class="cls-1" x="68.27" y="342" width="34.13" height="34.2"/><rect class="cls-1" x="34.13" y="342" width="34.13" height="34.2"/><rect class="cls-2" x="443.73" y="307.8" width="34.13" height="34.2"/><rect class="cls-2" x="409.6" y="307.8" width="34.13" height="34.2"/><rect class="cls-2" x="375.47" y="307.8" width="34.13" height="34.2"/><rect class="cls-2" x="341.33" y="307.8" width="34.13" height="34.2"/><rect class="cls-2" x="307.2" y="307.8" width="34.13" height="34.2"/><rect class="cls-2" x="273.07" y="307.8" width="34.13" height="34.2"/><rect class="cls-2" x="238.93" y="307.8" width="34.13" height="34.2"/><rect class="cls-2" x="204.8" y="307.8" width="34.13" height="34.2"/><rect class="cls-2" x="170.67" y="307.8" width="34.13" height="34.2"/><rect class="cls-2" x="136.53" y="307.8" width="34.13" height="34.2"/><rect class="cls-2" x="102.4" y="307.8" width="34.13" height="34.2"/><rect class="cls-2" x="68.27" y="307.8" width="34.13" height="34.2"/><rect class="cls-2" x="34.13" y="307.8" width="34.13" height="34.2"/><rect class="cls-2" x="477.87" y="273.6" width="34.13" height="34.2"/><rect class="cls-2" x="443.73" y="273.6" width="34.13" height="34.2"/><rect class="cls-2" x="409.6" y="273.6" width="34.13" height="34.2"/><rect class="cls-2" x="375.47" y="273.6" width="34.13" height="34.2"/><rect class="cls-2" x="341.33" y="273.6" width="34.13" height="34.2"/><rect class="cls-2" x="307.2" y="273.6" width="34.13" height="34.2"/><rect class="cls-2" x="273.07" y="273.6" width="34.13" height="34.2"/><rect class="cls-2" x="238.93" y="273.6" width="34.13" height="34.2"/><rect class="cls-2" x="204.8" y="273.6" width="34.13" height="34.2"/><rect class="cls-2" x="170.67" y="273.6" width="34.13" height="34.2"/><rect class="cls-2" x="136.53" y="273.6" width="34.13" height="34.2"/><rect class="cls-2" x="102.4" y="273.6" width="34.13" height="34.2"/><rect class="cls-2" x="68.27" y="273.6" width="34.13" height="34.2"/><rect class="cls-2" x="34.13" y="273.6" width="34.13" height="34.2"/><rect class="cls-2" y="273.6" width="34.13" height="34.2"/><rect class="cls-2" x="477.87" y="239.4" width="34.13" height="34.2"/><rect class="cls-2" x="443.73" y="239.4" width="34.13" height="34.2"/><rect class="cls-2" x="409.6" y="239.4" width="34.13" height="34.2"/><rect class="cls-2" x="375.47" y="239.4" width="34.13" height="34.2"/><rect class="cls-2" x="341.33" y="239.4" width="34.13" height="34.2"/><rect class="cls-2" x="307.2" y="239.4" width="34.13" height="34.2"/><rect class="cls-2" x="273.07" y="239.4" width="34.13" height="34.2"/><rect class="cls-2" x="238.93" y="239.4" width="34.13" height="34.2"/><rect class="cls-2" x="204.8" y="239.4" width="34.13" height="34.2"/><rect class="cls-2" x="170.67" y="239.4" width="34.13" height="34.2"/><rect class="cls-2" x="136.53" y="239.4" width="34.13" height="34.2"/><rect class="cls-2" x="102.4" y="239.4" width="34.13" height="34.2"/><rect class="cls-2" x="68.27" y="239.4" width="34.13" height="34.2"/><rect class="cls-2" x="34.13" y="239.4" width="34.13" height="34.2"/><rect class="cls-2" y="239.4" width="34.13" height="34.2"/><rect class="cls-2" x="477.87" y="205.2" width="34.13" height="34.2"/><rect class="cls-2" x="443.73" y="205.2" width="34.13" height="34.2"/><rect class="cls-2" x="409.6" y="205.2" width="34.13" height="34.2"/><rect class="cls-2" x="375.47" y="205.2" width="34.13" height="34.2"/><rect class="cls-2" x="341.33" y="205.2" width="34.13" height="34.2"/><rect class="cls-2" x="307.2" y="205.2" width="34.13" height="34.2"/><rect class="cls-2" x="273.07" y="205.2" width="34.13" height="34.2"/><rect class="cls-2" x="238.93" y="205.2" width="34.13" height="34.2"/><rect class="cls-2" x="204.8" y="205.2" width="34.13" height="34.2"/><rect class="cls-2" x="170.67" y="205.2" width="34.13" height="34.2"/><rect class="cls-2" x="136.53" y="205.2" width="34.13" height="34.2"/><rect class="cls-2" x="102.4" y="205.2" width="34.13" height="34.2"/><rect class="cls-2" x="68.27" y="205.2" width="34.13" height="34.2"/><rect class="cls-2" x="34.13" y="205.2" width="34.13" height="34.2"/><rect class="cls-2" y="205.2" width="34.13" height="34.2"/><rect class="cls-2" x="443.73" y="171" width="34.13" height="34.2"/><rect class="cls-2" x="409.6" y="171" width="34.13" height="34.2"/><rect class="cls-2" x="375.47" y="171" width="34.13" height="34.2"/><rect class="cls-2" x="341.33" y="171" width="34.13" height="34.2"/><rect class="cls-2" x="307.2" y="171" width="34.13" height="34.2"/><rect class="cls-2" x="273.07" y="171" width="34.13" height="34.2"/><rect class="cls-2" x="238.93" y="171" width="34.13" height="34.2"/><rect class="cls-2" x="204.8" y="171" width="34.13" height="34.2"/><rect class="cls-2" x="170.67" y="171" width="34.13" height="34.2"/><rect class="cls-2" x="136.53" y="171" width="34.13" height="34.2"/><rect class="cls-2" x="102.4" y="171" width="34.13" height="34.2"/><rect class="cls-2" x="68.27" y="171" width="34.13" height="34.2"/><rect class="cls-2" x="34.13" y="171" width="34.13" height="34.2"/><rect class="cls-1" x="443.73" y="136.8" width="34.13" height="34.2"/><rect class="cls-1" x="409.6" y="136.8" width="34.13" height="34.2"/><rect class="cls-1" x="375.47" y="136.8" width="34.13" height="34.2"/><rect class="cls-1" x="341.33" y="136.8" width="34.13" height="34.2"/><rect class="cls-1" x="307.2" y="136.8" width="34.13" height="34.2"/><rect class="cls-1" x="273.07" y="136.8" width="34.13" height="34.2"/><rect class="cls-1" x="238.93" y="136.8" width="34.13" height="34.2"/><rect class="cls-1" x="204.8" y="136.8" width="34.13" height="34.2"/><rect class="cls-1" x="170.67" y="136.8" width="34.13" height="34.2"/><rect class="cls-1" x="136.53" y="136.8" width="34.13" height="34.2"/><rect class="cls-1" x="102.4" y="136.8" width="34.13" height="34.2"/><rect class="cls-1" x="68.27" y="136.8" width="34.13" height="34.2"/><rect class="cls-1" x="34.13" y="136.8" width="34.13" height="34.2"/><rect class="cls-1" x="443.73" y="102.6" width="34.13" height="34.2"/><rect class="cls-1" x="409.6" y="102.6" width="34.13" height="34.2"/><rect class="cls-1" x="375.47" y="102.6" width="34.13" height="34.2"/><rect class="cls-1" x="341.33" y="102.6" width="34.13" height="34.2"/><rect class="cls-1" x="307.2" y="102.6" width="34.13" height="34.2"/><rect class="cls-1" x="273.07" y="102.6" width="34.13" height="34.2"/><rect class="cls-1" x="238.93" y="102.6" width="34.13" height="34.2"/><rect class="cls-1" x="204.8" y="102.6" width="34.13" height="34.2"/><rect class="cls-1" x="170.67" y="102.6" width="34.13" height="34.2"/><rect class="cls-1" x="136.53" y="102.6" width="34.13" height="34.2"/><rect class="cls-1" x="102.4" y="102.6" width="34.13" height="34.2"/><rect class="cls-1" x="68.27" y="102.6" width="34.13" height="34.2"/><rect class="cls-1" x="34.13" y="102.6" width="34.13" height="34.2"/><rect class="cls-3" x="93.78" y="230.9" width="34.13" height="34.2"/><rect class="cls-1" x="409.6" y="68.4" width="34.13" height="34.2"/><rect class="cls-1" x="375.47" y="68.4" width="34.13" height="34.2"/><rect class="cls-1" x="341.33" y="68.4" width="34.13" height="34.2"/><rect class="cls-1" x="307.2" y="68.4" width="34.13" height="34.2"/><rect class="cls-1" x="273.07" y="68.4" width="34.13" height="34.2"/><rect class="cls-1" x="238.93" y="68.4" width="34.13" height="34.2"/><rect class="cls-1" x="204.8" y="68.4" width="34.13" height="34.2"/><rect class="cls-1" x="170.67" y="68.4" width="34.13" height="34.2"/><rect class="cls-1" x="136.53" y="68.4" width="34.13" height="34.2"/><rect class="cls-1" x="102.4" y="68.4" width="34.13" height="34.2"/><rect class="cls-1" x="68.27" y="68.4" width="34.13" height="34.2"/><rect class="cls-1" x="375.47" y="34.2" width="34.13" height="34.2"/><rect class="cls-1" x="341.33" y="34.2" width="34.13" height="34.2"/><rect class="cls-1" x="307.2" y="34.2" width="34.13" height="34.2"/><rect class="cls-1" x="273.07" y="34.2" width="34.13" height="34.2"/><rect class="cls-1" x="238.93" y="34.2" width="34.13" height="34.2"/><rect class="cls-1" x="204.8" y="34.2" width="34.13" height="34.2"/><rect class="cls-1" x="170.67" y="34.2" width="34.13" height="34.2"/><rect class="cls-1" x="136.53" y="34.2" width="34.13" height="34.2"/><rect class="cls-1" x="102.4" y="34.2" width="34.13" height="34.2"/><rect class="cls-1" x="307.2" width="34.13" height="34.2"/><rect class="cls-1" x="273.07" width="34.13" height="34.2"/><rect class="cls-1" x="238.93" width="34.13" height="34.2"/><rect class="cls-1" x="204.8" width="34.13" height="34.2"/><rect class="cls-1" x="170.67" width="34.13" height="34.2"/><rect class="cls-3" x="59.66" y="265" width="34.13" height="34.2"/><rect class="cls-3" x="93.78" y="265" width="34.13" height="34.2"/></g></g></svg>