<svg xmlns="http://www.w3.org/2000/svg" viewBox="0 0 30 30.06"><defs><style>.cls-1{fill:#d80027;}.cls-2{fill:#ffda44;}.cls-3{fill:#fff;}</style></defs><title>es_lang_xxs</title><g id="Layer_2" data-name="Layer 2"><g id="Layer_1-2" data-name="Layer 1"><rect class="cls-1" x="18" y="28.05" width="2" height="2"/><rect class="cls-1" x="16" y="28.05" width="2" height="2"/><rect class="cls-1" x="14" y="28.05" width="2" height="2"/><rect class="cls-1" x="12" y="28.05" width="2" height="2"/><rect class="cls-1" x="10" y="28.05" width="2" height="2"/><rect class="cls-1" x="22" y="26.05" width="2" height="2"/><rect class="cls-1" x="20" y="26.05" width="2" height="2"/><rect class="cls-1" x="18" y="26.05" width="2" height="2"/><rect class="cls-1" x="16" y="26.05" width="2" height="2"/><rect class="cls-1" x="14" y="26.05" width="2" height="2"/><rect class="cls-1" x="12" y="26.05" width="2" height="2"/><rect class="cls-1" x="10" y="26.05" width="2" height="2"/><rect class="cls-1" x="8" y="26.05" width="2" height="2"/><rect class="cls-1" x="6" y="26.05" width="2" height="2"/><rect class="cls-1" x="24" y="24.05" width="2" height="2"/><rect class="cls-1" x="22" y="24.05" width="2" height="2"/><rect class="cls-1" x="20" y="24.05" width="2" height="2"/><rect class="cls-1" x="18" y="24.05" width="2" height="2"/><rect class="cls-1" x="16" y="24.05" width="2" height="2"/><rect class="cls-1" x="14" y="24.05" width="2" height="2"/><rect class="cls-1" x="12" y="24.05" width="2" height="2"/><rect class="cls-1" x="10" y="24.05" width="2" height="2"/><rect class="cls-1" x="8" y="24.05" width="2" height="2"/><rect class="cls-1" x="6" y="24.05" width="2" height="2"/><rect class="cls-1" x="4" y="24.05" width="2" height="2"/><rect class="cls-1" x="26" y="22.04" width="2" height="2"/><rect class="cls-1" x="24" y="22.04" width="2" height="2"/><rect class="cls-1" x="22" y="22.04" width="2" height="2"/><rect class="cls-1" x="20" y="22.04" width="2" height="2"/><rect class="cls-1" x="18" y="22.04" width="2" height="2"/><rect class="cls-1" x="16" y="22.04" width="2" height="2"/><rect class="cls-1" x="14" y="22.04" width="2" height="2"/><rect class="cls-1" x="12" y="22.04" width="2" height="2"/><rect class="cls-1" x="10" y="22.04" width="2" height="2"/><rect class="cls-1" x="8" y="22.04" width="2" height="2"/><rect class="cls-1" x="6" y="22.04" width="2" height="2"/><rect class="cls-1" x="4" y="22.04" width="2" height="2"/><rect class="cls-1" x="2" y="22.04" width="2" height="2"/><rect class="cls-1" x="26" y="20.04" width="2" height="2"/><rect class="cls-1" x="24" y="20.04" width="2" height="2"/><rect class="cls-1" x="22" y="20.04" width="2" height="2"/><rect class="cls-1" x="20" y="20.04" width="2" height="2"/><rect class="cls-1" x="18" y="20.04" width="2" height="2"/><rect class="cls-1" x="16" y="20.04" width="2" height="2"/><rect class="cls-1" x="14" y="20.04" width="2" height="2"/><rect class="cls-1" x="12" y="20.04" width="2" height="2"/><rect class="cls-1" x="10" y="20.04" width="2" height="2"/><rect class="cls-1" x="8" y="20.04" width="2" height="2"/><rect class="cls-1" x="6" y="20.04" width="2" height="2"/><rect class="cls-1" x="4" y="20.04" width="2" height="2"/><rect class="cls-1" x="2" y="20.04" width="2" height="2"/><rect class="cls-2" x="26" y="18.04" width="2" height="2"/><rect class="cls-2" x="24" y="18.04" width="2" height="2"/><rect class="cls-2" x="22" y="18.04" width="2" height="2"/><rect class="cls-2" x="20" y="18.04" width="2" height="2"/><rect class="cls-2" x="18" y="18.04" width="2" height="2"/><rect class="cls-2" x="16" y="18.04" width="2" height="2"/><rect class="cls-2" x="14" y="18.04" width="2" height="2"/><rect class="cls-2" x="12" y="18.04" width="2" height="2"/><rect class="cls-2" x="10" y="18.04" width="2" height="2"/><rect class="cls-2" x="8" y="18.04" width="2" height="2"/><rect class="cls-2" x="6" y="18.04" width="2" height="2"/><rect class="cls-2" x="4" y="18.04" width="2" height="2"/><rect class="cls-2" x="2" y="18.04" width="2" height="2"/><rect class="cls-2" x="28" y="16.03" width="2" height="2"/><rect class="cls-2" x="26" y="16.03" width="2" height="2"/><rect class="cls-2" x="24" y="16.03" width="2" height="2"/><rect class="cls-2" x="22" y="16.03" width="2" height="2"/><rect class="cls-2" x="20" y="16.03" width="2" height="2"/><rect class="cls-2" x="18" y="16.03" width="2" height="2"/><rect class="cls-2" x="16" y="16.03" width="2" height="2"/><rect class="cls-2" x="14" y="16.03" width="2" height="2"/><rect class="cls-2" x="12" y="16.03" width="2" height="2"/><rect class="cls-2" x="10" y="16.03" width="2" height="2"/><rect class="cls-2" x="8" y="16.03" width="2" height="2"/><rect class="cls-2" x="6" y="16.03" width="2" height="2"/><rect class="cls-2" x="4" y="16.03" width="2" height="2"/><rect class="cls-2" x="2" y="16.03" width="2" height="2"/><rect class="cls-2" y="16.03" width="2" height="2"/><rect class="cls-2" x="28" y="14.03" width="2" height="2"/><rect class="cls-2" x="26" y="14.03" width="2" height="2"/><rect class="cls-2" x="24" y="14.03" width="2" height="2"/><rect class="cls-2" x="22" y="14.03" width="2" height="2"/><rect class="cls-2" x="20" y="14.03" width="2" height="2"/><rect class="cls-2" x="18" y="14.03" width="2" height="2"/><rect class="cls-2" x="16" y="14.03" width="2" height="2"/><rect class="cls-2" x="14" y="14.03" width="2" height="2"/><rect class="cls-2" x="12" y="14.03" width="2" height="2"/><rect class="cls-2" x="10" y="14.03" width="2" height="2"/><rect class="cls-2" x="8" y="14.03" width="2" height="2"/><rect class="cls-2" x="6" y="14.03" width="2" height="2"/><rect class="cls-2" x="4" y="14.03" width="2" height="2"/><rect class="cls-2" x="2" y="14.03" width="2" height="2"/><rect class="cls-2" y="14.03" width="2" height="2"/><rect class="cls-2" x="28" y="12.02" width="2" height="2"/><rect class="cls-2" x="26" y="12.02" width="2" height="2"/><rect class="cls-2" x="24" y="12.02" width="2" height="2"/><rect class="cls-2" x="22" y="12.02" width="2" height="2"/><rect class="cls-2" x="20" y="12.02" width="2" height="2"/><rect class="cls-2" x="18" y="12.02" width="2" height="2"/><rect class="cls-2" x="16" y="12.02" width="2" height="2"/><rect class="cls-2" x="14" y="12.02" width="2" height="2"/><rect class="cls-2" x="12" y="12.02" width="2" height="2"/><rect class="cls-2" x="10" y="12.02" width="2" height="2"/><rect class="cls-2" x="8" y="12.02" width="2" height="2"/><rect class="cls-2" x="6" y="12.02" width="2" height="2"/><rect class="cls-2" x="4" y="12.02" width="2" height="2"/><rect class="cls-2" x="2" y="12.02" width="2" height="2"/><rect class="cls-2" y="12.02" width="2" height="2"/><rect class="cls-2" x="26" y="10.02" width="2" height="2"/><rect class="cls-2" x="24" y="10.02" width="2" height="2"/><rect class="cls-2" x="22" y="10.02" width="2" height="2"/><rect class="cls-2" x="20" y="10.02" width="2" height="2"/><rect class="cls-2" x="18" y="10.02" width="2" height="2"/><rect class="cls-2" x="16" y="10.02" width="2" height="2"/><rect class="cls-2" x="14" y="10.02" width="2" height="2"/><rect class="cls-2" x="12" y="10.02" width="2" height="2"/><rect class="cls-2" x="10" y="10.02" width="2" height="2"/><rect class="cls-2" x="8" y="10.02" width="2" height="2"/><rect class="cls-2" x="6" y="10.02" width="2" height="2"/><rect class="cls-2" x="4" y="10.02" width="2" height="2"/><rect class="cls-2" x="2" y="10.02" width="2" height="2"/><rect class="cls-1" x="26" y="8.02" width="2" height="2"/><rect class="cls-1" x="24" y="8.02" width="2" height="2"/><rect class="cls-1" x="22" y="8.02" width="2" height="2"/><rect class="cls-1" x="20" y="8.02" width="2" height="2"/><rect class="cls-1" x="18" y="8.02" width="2" height="2"/><rect class="cls-1" x="16" y="8.02" width="2" height="2"/><rect class="cls-1" x="14" y="8.02" width="2" height="2"/><rect class="cls-1" x="12" y="8.02" width="2" height="2"/><rect class="cls-1" x="10" y="8.02" width="2" height="2"/><rect class="cls-1" x="8" y="8.02" width="2" height="2"/><rect class="cls-1" x="6" y="8.02" width="2" height="2"/><rect class="cls-1" x="4" y="8.02" width="2" height="2"/><rect class="cls-1" x="2" y="8.02" width="2" height="2"/><rect class="cls-1" x="26" y="6.01" width="2" height="2"/><rect class="cls-1" x="24" y="6.01" width="2" height="2"/><rect class="cls-1" x="22" y="6.01" width="2" height="2"/><rect class="cls-1" x="20" y="6.01" width="2" height="2"/><rect class="cls-1" x="18" y="6.01" width="2" height="2"/><rect class="cls-1" x="16" y="6.01" width="2" height="2"/><rect class="cls-1" x="14" y="6.01" width="2" height="2"/><rect class="cls-1" x="12" y="6.01" width="2" height="2"/><rect class="cls-1" x="10" y="6.01" width="2" height="2"/><rect class="cls-1" x="8" y="6.01" width="2" height="2"/><rect class="cls-1" x="6" y="6.01" width="2" height="2"/><rect class="cls-1" x="4" y="6.01" width="2" height="2"/><rect class="cls-1" x="2" y="6.01" width="2" height="2"/><rect class="cls-3" x="5.49" y="13.53" width="2" height="2"/><rect class="cls-1" x="24" y="4.01" width="2" height="2"/><rect class="cls-1" x="22" y="4.01" width="2" height="2"/><rect class="cls-1" x="20" y="4.01" width="2" height="2"/><rect class="cls-1" x="18" y="4.01" width="2" height="2"/><rect class="cls-1" x="16" y="4.01" width="2" height="2"/><rect class="cls-1" x="14" y="4.01" width="2" height="2"/><rect class="cls-1" x="12" y="4.01" width="2" height="2"/><rect class="cls-1" x="10" y="4.01" width="2" height="2"/><rect class="cls-1" x="8" y="4.01" width="2" height="2"/><rect class="cls-1" x="6" y="4.01" width="2" height="2"/><rect class="cls-1" x="4" y="4.01" width="2" height="2"/><rect class="cls-1" x="22" y="2" width="2" height="2"/><rect class="cls-1" x="20" y="2" width="2" height="2"/><rect class="cls-1" x="18" y="2" width="2" height="2"/><rect class="cls-1" x="16" y="2" width="2" height="2"/><rect class="cls-1" x="14" y="2" width="2" height="2"/><rect class="cls-1" x="12" y="2" width="2" height="2"/><rect class="cls-1" x="10" y="2" width="2" height="2"/><rect class="cls-1" x="8" y="2" width="2" height="2"/><rect class="cls-1" x="6" y="2" width="2" height="2"/><rect class="cls-1" x="18" width="2" height="2"/><rect class="cls-1" x="16" width="2" height="2"/><rect class="cls-1" x="14" width="2" height="2"/><rect class="cls-1" x="12" width="2" height="2"/><rect class="cls-1" x="10" width="2" height="2"/><rect class="cls-3" x="3.5" y="15.53" width="2" height="2"/><rect class="cls-3" x="5.49" y="15.53" width="2" height="2"/></g></g></svg>