<svg xmlns="http://www.w3.org/2000/svg" viewBox="0 0 30 33.41"><defs><style>.cls-1{fill:#65e8e3;}</style></defs><title>projects_xxs</title><g id="Layer_2" data-name="Layer 2"><g id="Layer_1-2" data-name="Layer 1"><rect class="cls-1" x="1.82" y="14.77" width="1.82" height="1.82"/><rect class="cls-1" y="7.5" width="1.82" height="7.27"/><rect class="cls-1" x="25.91" y="14.77" width="2.05" height="1.82"/><rect class="cls-1" x="27.95" y="7.5" width="2.05" height="7.27"/><polygon class="cls-1" points="22.27 14.77 22.27 16.59 25.91 16.59 25.91 18.64 20.46 18.64 20.46 20.23 18.63 20.23 18.63 22.27 16.59 22.27 16.59 29.78 20.46 29.78 20.46 33.41 9.09 33.41 9.09 29.78 13.18 29.78 13.18 22.27 11.14 22.27 11.14 20.23 9.09 20.23 9.09 18.64 3.63 18.64 3.63 16.59 7.5 16.59 7.5 14.77 5.68 14.77 5.68 7.5 1.82 7.5 1.82 5.46 5.68 5.46 5.68 1.82 3.63 1.82 3.63 0 25.91 0 25.91 1.82 24.32 1.82 24.32 5.46 27.95 5.46 27.95 7.5 24.32 7.5 24.32 14.77 22.27 14.77"/></g></g></svg>