<svg xmlns="http://www.w3.org/2000/svg" viewBox="0 0 30 33.33"><defs><style>.cls-1{fill:#d35b3f;}.cls-2{fill:#fff;}</style></defs><title>resume_xxs</title><g id="Layer_2" data-name="Layer 2"><g id="Layer_1-2" data-name="Layer 1"><polygon points="1.67 0 1.67 3.33 0 3.33 0 33.33 26.67 33.33 26.67 31.66 30 31.66 30 0 1.67 0"/><rect class="cls-1" x="1.67" y="5" width="23.33" height="26.67"/><polygon class="cls-2" points="28.34 30 26.67 30 26.67 3.33 3.33 3.33 3.33 1.67 28.34 1.67 28.34 30"/><polygon points="20 21.67 21.67 21.67 21.67 28.33 5 28.33 5 21.67 6.67 21.67 6.67 20 10 20 10 18.34 8.33 18.34 8.33 10 10 10 10 8.33 16.66 8.33 16.66 10 18.34 10 18.34 18.34 16.66 18.34 16.66 20 20 20 20 21.67"/></g></g></svg>