<svg xmlns="http://www.w3.org/2000/svg" viewBox="0 0 512 513"><defs><style>.cls-1{fill:#d80027;}.cls-2{fill:#f0f0f0;}.cls-3{fill:#e37488;}.cls-4{fill:#da1639;}.cls-5{fill:#de435f;}.cls-6{fill:#716ca6;}.cls-7{fill:#437ec4;}.cls-8{fill:#40398a;}.cls-9{fill:#0052b4;}.cls-10{fill:#efefef;}.cls-11{fill:#0555b5;}.cls-12{fill:#4780c5;}.cls-13{fill:#0d5bb7;}.cls-14{fill:#0958b6;}.cls-15{fill:#2d70bf;}.cls-16{fill:#6594cd;}.cls-17{fill:#d90f33;}.cls-18{fill:#403d8d;}.cls-19{fill:#0d5ab7;}</style></defs><title>xxs</title><g id="Layer_2" data-name="Layer 2"><g id="Layer_1-2" data-name="Layer 1"><rect class="cls-1" x="307.2" y="478.8" width="34.13" height="34.2"/><rect class="cls-1" x="273.07" y="478.8" width="34.13" height="34.2"/><rect class="cls-1" x="238.93" y="478.8" width="34.13" height="34.2"/><rect class="cls-1" x="204.8" y="478.8" width="34.13" height="34.2"/><rect class="cls-1" x="170.67" y="478.8" width="34.13" height="34.2"/><rect class="cls-1" x="375.47" y="444.6" width="34.13" height="34.2"/><rect class="cls-1" x="341.33" y="444.6" width="34.13" height="34.2"/><rect class="cls-1" x="307.2" y="444.6" width="34.13" height="34.2"/><rect class="cls-1" x="273.07" y="444.6" width="34.13" height="34.2"/><rect class="cls-1" x="238.93" y="444.6" width="34.13" height="34.2"/><rect class="cls-1" x="204.8" y="444.6" width="34.13" height="34.2"/><rect class="cls-1" x="170.67" y="444.6" width="34.13" height="34.2"/><rect class="cls-1" x="136.53" y="444.6" width="34.13" height="34.2"/><rect class="cls-1" x="102.4" y="444.6" width="34.13" height="34.2"/><rect class="cls-2" x="409.6" y="410.4" width="34.13" height="34.2"/><rect class="cls-2" x="375.47" y="410.4" width="34.13" height="34.2"/><rect class="cls-2" x="341.33" y="410.4" width="34.13" height="34.2"/><rect class="cls-2" x="307.2" y="410.4" width="34.13" height="34.2"/><rect class="cls-2" x="273.07" y="410.4" width="34.13" height="34.2"/><rect class="cls-2" x="238.93" y="410.4" width="34.13" height="34.2"/><rect class="cls-2" x="204.8" y="410.4" width="34.13" height="34.2"/><rect class="cls-2" x="170.67" y="410.4" width="34.13" height="34.2"/><rect class="cls-2" x="136.53" y="410.4" width="34.13" height="34.2"/><rect class="cls-2" x="102.4" y="410.4" width="34.13" height="34.2"/><rect class="cls-2" x="68.27" y="410.4" width="34.13" height="34.2"/><rect class="cls-3" x="443.73" y="376.2" width="34.13" height="34.2"/><rect class="cls-3" x="409.6" y="376.2" width="34.13" height="34.2"/><rect class="cls-3" x="375.47" y="376.2" width="34.13" height="34.2"/><rect class="cls-3" x="341.33" y="376.2" width="34.13" height="34.2"/><rect class="cls-3" x="307.2" y="376.2" width="34.13" height="34.2"/><rect class="cls-3" x="273.07" y="376.2" width="34.13" height="34.2"/><rect class="cls-3" x="238.93" y="376.2" width="34.13" height="34.2"/><rect class="cls-3" x="204.8" y="376.2" width="34.13" height="34.2"/><rect class="cls-3" x="170.67" y="376.2" width="34.13" height="34.2"/><rect class="cls-3" x="136.53" y="376.2" width="34.13" height="34.2"/><rect class="cls-3" x="102.4" y="376.2" width="34.13" height="34.2"/><rect class="cls-3" x="68.27" y="376.2" width="34.13" height="34.2"/><rect class="cls-3" x="34.13" y="376.2" width="34.13" height="34.2"/><rect class="cls-1" x="443.73" y="342" width="34.13" height="34.2"/><rect class="cls-1" x="409.6" y="342" width="34.13" height="34.2"/><rect class="cls-1" x="375.47" y="342" width="34.13" height="34.2"/><rect class="cls-1" x="341.33" y="342" width="34.13" height="34.2"/><rect class="cls-1" x="307.2" y="342" width="34.13" height="34.2"/><rect class="cls-1" x="273.07" y="342" width="34.13" height="34.2"/><rect class="cls-1" x="238.93" y="342" width="34.13" height="34.2"/><rect class="cls-1" x="204.8" y="342" width="34.13" height="34.2"/><rect class="cls-1" x="170.67" y="342" width="34.13" height="34.2"/><rect class="cls-1" x="136.53" y="342" width="34.13" height="34.2"/><rect class="cls-1" x="102.4" y="342" width="34.13" height="34.2"/><rect class="cls-1" x="68.27" y="342" width="34.13" height="34.2"/><rect class="cls-1" x="34.13" y="342" width="34.13" height="34.2"/><rect class="cls-4" x="477.87" y="307.8" width="34.13" height="34.2"/><rect class="cls-4" x="443.73" y="307.8" width="34.13" height="34.2"/><rect class="cls-4" x="409.6" y="307.8" width="34.13" height="34.2"/><rect class="cls-4" x="375.47" y="307.8" width="34.13" height="34.2"/><rect class="cls-4" x="341.33" y="307.8" width="34.13" height="34.2"/><rect class="cls-4" x="307.2" y="307.8" width="34.13" height="34.2"/><rect class="cls-4" x="273.07" y="307.8" width="34.13" height="34.2"/><rect class="cls-4" x="238.93" y="307.8" width="34.13" height="34.2"/><rect class="cls-4" x="204.8" y="307.8" width="34.13" height="34.2"/><rect class="cls-4" x="170.67" y="307.8" width="34.13" height="34.2"/><rect class="cls-4" x="136.53" y="307.8" width="34.13" height="34.2"/><rect class="cls-4" x="102.4" y="307.8" width="34.13" height="34.2"/><rect class="cls-4" x="68.27" y="307.8" width="34.13" height="34.2"/><rect class="cls-4" x="34.13" y="307.8" width="34.13" height="34.2"/><rect class="cls-4" y="307.8" width="34.13" height="34.2"/><rect class="cls-2" x="477.87" y="273.6" width="34.13" height="34.2"/><rect class="cls-2" x="443.73" y="273.6" width="34.13" height="34.2"/><rect class="cls-2" x="409.6" y="273.6" width="34.13" height="34.2"/><rect class="cls-2" x="375.47" y="273.6" width="34.13" height="34.2"/><rect class="cls-2" x="341.33" y="273.6" width="34.13" height="34.2"/><rect class="cls-2" x="307.2" y="273.6" width="34.13" height="34.2"/><rect class="cls-2" x="273.07" y="273.6" width="34.13" height="34.2"/><rect class="cls-2" x="238.93" y="273.6" width="34.13" height="34.2"/><rect class="cls-2" x="204.8" y="273.6" width="34.13" height="34.2"/><rect class="cls-2" x="170.67" y="273.6" width="34.13" height="34.2"/><rect class="cls-2" x="136.53" y="273.6" width="34.13" height="34.2"/><rect class="cls-2" x="102.4" y="273.6" width="34.13" height="34.2"/><rect class="cls-2" x="68.27" y="273.6" width="34.13" height="34.2"/><rect class="cls-2" x="34.13" y="273.6" width="34.13" height="34.2"/><rect class="cls-2" y="273.6" width="34.13" height="34.2"/><rect class="cls-5" x="477.87" y="239.4" width="34.13" height="34.2"/><rect class="cls-5" x="443.73" y="239.4" width="34.13" height="34.2"/><rect class="cls-5" x="409.6" y="239.4" width="34.13" height="34.2"/><rect class="cls-5" x="375.47" y="239.4" width="34.13" height="34.2"/><rect class="cls-5" x="341.33" y="239.4" width="34.13" height="34.2"/><rect class="cls-5" x="307.2" y="239.4" width="34.13" height="34.2"/><rect class="cls-5" x="273.07" y="239.4" width="34.13" height="34.2"/><rect class="cls-6" x="238.93" y="239.4" width="34.13" height="34.2"/><rect class="cls-7" x="204.8" y="239.4" width="34.13" height="34.2"/><rect class="cls-7" x="170.67" y="239.4" width="34.13" height="34.2"/><rect class="cls-7" x="136.53" y="239.4" width="34.13" height="34.2"/><rect class="cls-7" x="102.4" y="239.4" width="34.13" height="34.2"/><rect class="cls-7" x="68.27" y="239.4" width="34.13" height="34.2"/><rect class="cls-7" x="34.13" y="239.4" width="34.13" height="34.2"/><rect class="cls-7" y="239.4" width="34.13" height="34.2"/><rect class="cls-1" x="477.87" y="205.2" width="34.13" height="34.2"/><rect class="cls-1" x="443.73" y="205.2" width="34.13" height="34.2"/><rect class="cls-1" x="409.6" y="205.2" width="34.13" height="34.2"/><rect class="cls-1" x="375.47" y="205.2" width="34.13" height="34.2"/><rect class="cls-1" x="341.33" y="205.2" width="34.13" height="34.2"/><rect class="cls-1" x="307.2" y="205.2" width="34.13" height="34.2"/><rect class="cls-1" x="273.07" y="205.2" width="34.13" height="34.2"/><rect class="cls-8" x="238.93" y="205.2" width="34.13" height="34.2"/><rect class="cls-9" x="204.8" y="205.2" width="34.13" height="34.2"/><rect class="cls-10" x="170.67" y="205.2" width="34.13" height="34.2"/><rect class="cls-9" x="136.53" y="205.2" width="34.13" height="34.2"/><rect class="cls-2" x="102.4" y="205.2" width="34.13" height="34.2"/><rect class="cls-11" x="68.27" y="205.2" width="34.13" height="34.2"/><rect class="cls-9" x="34.13" y="205.2" width="34.13" height="34.2"/><rect class="cls-9" y="205.2" width="34.13" height="34.2"/><rect class="cls-2" x="477.87" y="171" width="34.13" height="34.2"/><rect class="cls-2" x="443.73" y="171" width="34.13" height="34.2"/><rect class="cls-2" x="409.6" y="171" width="34.13" height="34.2"/><rect class="cls-2" x="375.47" y="171" width="34.13" height="34.2"/><rect class="cls-2" x="341.33" y="171" width="34.13" height="34.2"/><rect class="cls-2" x="307.2" y="171" width="34.13" height="34.2"/><rect class="cls-2" x="273.07" y="171" width="34.13" height="34.2"/><rect class="cls-12" x="238.93" y="171" width="34.13" height="34.2"/><rect class="cls-9" x="204.8" y="171" width="34.13" height="34.2"/><rect class="cls-9" x="170.67" y="171" width="34.13" height="34.2"/><rect class="cls-9" x="136.53" y="171" width="34.13" height="34.2"/><rect class="cls-9" x="102.4" y="171" width="34.13" height="34.2"/><rect class="cls-9" x="68.27" y="171" width="34.13" height="34.2"/><rect class="cls-9" x="34.13" y="171" width="34.13" height="34.2"/><rect class="cls-2" y="171" width="34.13" height="34.2"/><rect class="cls-2" x="443.73" y="136.8" width="34.13" height="34.2"/><rect class="cls-2" x="409.6" y="136.8" width="34.13" height="34.2"/><rect class="cls-2" x="375.47" y="136.8" width="34.13" height="34.2"/><rect class="cls-2" x="341.33" y="136.8" width="34.13" height="34.2"/><rect class="cls-2" x="307.2" y="136.8" width="34.13" height="34.2"/><rect class="cls-2" x="273.07" y="136.8" width="34.13" height="34.2"/><rect class="cls-12" x="238.93" y="136.8" width="34.13" height="34.2"/><rect class="cls-13" x="204.8" y="136.8" width="34.13" height="34.2"/><rect class="cls-14" x="170.67" y="136.8" width="34.13" height="34.2"/><rect class="cls-9" x="136.53" y="136.8" width="34.13" height="34.2"/><rect class="cls-15" x="102.4" y="136.8" width="34.13" height="34.2"/><rect class="cls-16" x="68.27" y="136.8" width="34.13" height="34.2"/><rect class="cls-9" x="34.13" y="136.8" width="34.13" height="34.2"/><rect class="cls-17" x="443.73" y="102.6" width="34.13" height="34.2"/><rect class="cls-17" x="409.6" y="102.6" width="34.13" height="34.2"/><rect class="cls-17" x="375.47" y="102.6" width="34.13" height="34.2"/><rect class="cls-17" x="341.33" y="102.6" width="34.13" height="34.2"/><rect class="cls-17" x="307.2" y="102.6" width="34.13" height="34.2"/><rect class="cls-17" x="273.07" y="102.6" width="34.13" height="34.2"/><rect class="cls-18" x="238.93" y="102.6" width="34.13" height="34.2"/><rect class="cls-10" x="204.8" y="102.6" width="34.13" height="34.2"/><rect class="cls-2" x="170.67" y="102.6" width="34.13" height="34.2"/><rect class="cls-9" x="136.53" y="102.6" width="34.13" height="34.2"/><rect class="cls-2" x="102.4" y="102.6" width="34.13" height="34.2"/><rect class="cls-2" x="68.27" y="102.6" width="34.13" height="34.2"/><rect class="cls-9" x="34.13" y="102.6" width="34.13" height="34.2"/><rect class="cls-1" x="409.6" y="68.4" width="34.13" height="34.2"/><rect class="cls-1" x="375.47" y="68.4" width="34.13" height="34.2"/><rect class="cls-1" x="341.33" y="68.4" width="34.13" height="34.2"/><rect class="cls-1" x="307.2" y="68.4" width="34.13" height="34.2"/><rect class="cls-1" x="273.07" y="68.4" width="34.13" height="34.2"/><rect class="cls-8" x="238.93" y="68.4" width="34.13" height="34.2"/><rect class="cls-9" x="204.8" y="68.4" width="34.13" height="34.2"/><rect class="cls-9" x="170.67" y="68.4" width="34.13" height="34.2"/><rect class="cls-9" x="136.53" y="68.4" width="34.13" height="34.2"/><rect class="cls-9" x="102.4" y="68.4" width="34.13" height="34.2"/><rect class="cls-9" x="68.27" y="68.4" width="34.13" height="34.2"/><rect class="cls-2" x="375.47" y="34.2" width="34.13" height="34.2"/><rect class="cls-2" x="341.33" y="34.2" width="34.13" height="34.2"/><rect class="cls-2" x="307.2" y="34.2" width="34.13" height="34.2"/><rect class="cls-2" x="273.07" y="34.2" width="34.13" height="34.2"/><rect class="cls-12" x="238.93" y="34.2" width="34.13" height="34.2"/><rect class="cls-19" x="204.8" y="34.2" width="34.13" height="34.2"/><rect class="cls-2" x="170.67" y="34.2" width="34.13" height="34.2"/><rect class="cls-9" x="136.53" y="34.2" width="34.13" height="34.2"/><rect class="cls-2" x="102.4" y="34.2" width="34.13" height="34.2"/><rect class="cls-2" x="307.2" width="34.13" height="34.2"/><rect class="cls-2" x="273.07" width="34.13" height="34.2"/><rect class="cls-12" x="238.93" width="34.13" height="34.2"/><rect class="cls-9" x="204.8" width="34.13" height="34.2"/><rect class="cls-9" x="170.67" width="34.13" height="34.2"/></g></g></svg>